<svg width="21" height="22" viewBox="0 0 21 22" fill="none" xmlns="http://www.w3.org/2000/svg">
<path d="M14 21.0268V18.1568C14.0375 17.68 13.9731 17.2006 13.811 16.7506C13.6489 16.3006 13.3929 15.8902 13.06 15.5468C16.2 15.1968 19.5 14.0068 19.5 8.54679C19.4997 7.15062 18.9627 5.80799 18 4.79679C18.4558 3.5753 18.4236 2.22514 17.91 1.02679C17.91 1.02679 16.73 0.676793 14 2.50679C11.708 1.88561 9.29197 1.88561 6.99996 2.50679C4.26996 0.676793 3.08996 1.02679 3.08996 1.02679C2.57633 2.22514 2.54409 3.5753 2.99995 4.79679C2.03007 5.81549 1.49247 7.17026 1.49995 8.57679C1.49995 13.9968 4.79994 15.1868 7.93994 15.5768C7.61094 15.9168 7.35721 16.3222 7.19525 16.7667C7.0333 17.2112 6.96676 17.6849 6.99996 18.1568V21.0268" stroke="black" stroke-width="1.5" stroke-linecap="round" stroke-linejoin="round"/>
</svg>
